<?xml version="1.0" encoding="UTF-8" standalone="no"?>
<!-- Generator: Adobe Illustrator 19.0.0, SVG Export Plug-In . SVG Version: 6.00 Build 0)  -->

<svg
   xmlns:dc="http://purl.org/dc/elements/1.1/"
   xmlns:cc="http://creativecommons.org/ns#"
   xmlns:rdf="http://www.w3.org/1999/02/22-rdf-syntax-ns#"
   xmlns:svg="http://www.w3.org/2000/svg"
   xmlns="http://www.w3.org/2000/svg"
   xmlns:sodipodi="http://sodipodi.sourceforge.net/DTD/sodipodi-0.dtd"
   xmlns:inkscape="http://www.inkscape.org/namespaces/inkscape"
   version="1.1"
   id="Layer_1"
   x="0px"
   y="0px"
   viewBox="0 0 512 335.45"
   xml:space="preserve"
   inkscape:version="0.48.5 r10040"
   width="100%"
   height="100%"
   sodipodi:docname="united-kingdom.svg"><metadata
     id="metadata53"><rdf:RDF><cc:Work
         rdf:about=""><dc:format>image/svg+xml</dc:format><dc:type
           rdf:resource="http://purl.org/dc/dcmitype/StillImage" /></cc:Work></rdf:RDF></metadata><defs
     id="defs51" /><sodipodi:namedview
     pagecolor="#ffffff"
     bordercolor="#666666"
     borderopacity="1"
     objecttolerance="10"
     gridtolerance="10"
     guidetolerance="10"
     inkscape:pageopacity="0"
     inkscape:pageshadow="2"
     inkscape:window-width="1280"
     inkscape:window-height="958"
     id="namedview49"
     showgrid="false"
     inkscape:zoom="0.921875"
     inkscape:cx="207.0026"
     inkscape:cy="300.5375"
     inkscape:window-x="0"
     inkscape:window-y="27"
     inkscape:window-maximized="1"
     inkscape:current-layer="Layer_1" /><g
     id="g3030"
     transform="translate(0,-88.275)"><path
       id="path3"
       d="M 473.655,88.276 H 38.345 C 17.167,88.276 0,105.443 0,126.621 V 385.38 c 0,21.177 17.167,38.345 38.345,38.345 h 435.31 C 494.832,423.725 512,406.558 512,385.38 V 126.621 c 0,-21.178 -17.167,-38.345 -38.345,-38.345 z"
       style="fill:#41479b"
       inkscape:connector-curvature="0" /><path
       id="path5"
       d="M 511.469,120.282 C 508.447,102.123 492.672,88.275 473.655,88.275 h -9.977 L 300.138,195.422 V 88.276 H 211.862 V 195.423 L 48.322,88.276 h -9.977 c -19.017,0 -34.792,13.847 -37.814,32.007 l 139.778,91.58 H 0 v 88.276 H 140.309 L 0.531,391.717 c 3.022,18.159 18.797,32.007 37.814,32.007 h 9.977 l 163.54,-107.147 v 107.147 h 88.276 V 316.577 l 163.54,107.147 h 9.977 c 19.017,0 34.792,-13.847 37.814,-32.007 L 371.691,300.137 H 512 V 211.861 H 371.691 l 139.778,-91.579 z"
       style="fill:#f5f5f5"
       inkscape:connector-curvature="0" /><g
       id="g7"><polygon
         id="polygon9"
         points="282.483,282.483 512,282.483 512,229.517 282.483,229.517 282.483,88.276 229.517,88.276 229.517,229.517 0,229.517 0,282.483 229.517,282.483 229.517,423.724 282.483,423.724 "
         style="fill:#ff4b55" /><path
         id="path11"
         d="M 24.793,421.252 211.376,300.138 H 178.948 L 9.224,410.31 c 4.153,4.847 9.49,8.645 15.569,10.942 z"
         style="fill:#ff4b55"
         inkscape:connector-curvature="0" /><path
         id="path13"
         d="M 346.388,300.138 H 313.96 l 180.716,117.305 c 5.057,-3.321 9.277,-7.807 12.287,-13.075 L 346.388,300.138 z"
         style="fill:#ff4b55"
         inkscape:connector-curvature="0" /><path
         id="path15"
         d="m 4.049,109.475 157.73,102.387 h 32.428 L 15.475,95.842 c -4.799,3.572 -8.726,8.242 -11.426,13.633 z"
         style="fill:#ff4b55"
         inkscape:connector-curvature="0" /><path
         id="path17"
         d="M 332.566,211.862 502.601,101.487 c -4.199,-4.831 -9.578,-8.607 -15.699,-10.86 L 300.138,211.862 h 32.428 z"
         style="fill:#ff4b55"
         inkscape:connector-curvature="0" /></g></g><g
     id="g19"
     transform="translate(0,-176.55)" /><g
     id="g21"
     transform="translate(0,-176.55)" /><g
     id="g23"
     transform="translate(0,-176.55)" /><g
     id="g25"
     transform="translate(0,-176.55)" /><g
     id="g27"
     transform="translate(0,-176.55)" /><g
     id="g29"
     transform="translate(0,-176.55)" /><g
     id="g31"
     transform="translate(0,-176.55)" /><g
     id="g33"
     transform="translate(0,-176.55)" /><g
     id="g35"
     transform="translate(0,-176.55)" /><g
     id="g37"
     transform="translate(0,-176.55)" /><g
     id="g39"
     transform="translate(0,-176.55)" /><g
     id="g41"
     transform="translate(0,-176.55)" /><g
     id="g43"
     transform="translate(0,-176.55)" /><g
     id="g45"
     transform="translate(0,-176.55)" /><g
     id="g47"
     transform="translate(0,-176.55)" /></svg>